<svg xmlns="http://www.w3.org/2000/svg" viewBox="0 0 512 512">
  <defs>
    <linearGradient id="bg" x1="0" y1="0" x2="1" y2="1">
      <stop offset="0%" stop-color="#0B3D2E"/>
      <stop offset="100%" stop-color="#165C45"/>
    </linearGradient>
    <linearGradient id="gold" x1="0" y1="0" x2="1" y2="1">
      <stop offset="0%" stop-color="#F4D77A"/>
      <stop offset="100%" stop-color="#C69A2D"/>
    </linearGradient>
  </defs>

  <rect x="32" y="32" width="448" height="448" rx="112" fill="url(#bg)"/>

  <!-- cattle horn / livestock mark -->
  <path d="M118 180C102 128 132 96 184 102C158 118 150 152 164 184"
        fill="none" stroke="#F7F1DC" stroke-width="34" stroke-linecap="round"/>
  <path d="M394 180C410 128 380 96 328 102C354 118 362 152 348 184"
        fill="none" stroke="#F7F1DC" stroke-width="34" stroke-linecap="round"/>

  <!-- simplified cattle head -->
  <path d="M164 186C184 146 222 126 256 126C290 126 328 146 348 186
           C370 230 354 330 304 374C285 391 272 404 256 404
           C240 404 227 391 208 374C158 330 142 230 164 186Z"
        fill="#F7F1DC"/>
  <path d="M217 274C228 264 242 258 256 258C270 258 284 264 295 274
           C289 308 275 330 256 330C237 330 223 308 217 274Z"
        fill="#0B3D2E" opacity="0.9"/>

  <!-- DNA helix -->
  <path d="M206 166C304 214 304 300 206 348" fill="none"
        stroke="url(#gold)" stroke-width="24" stroke-linecap="round"/>
  <path d="M306 166C208 214 208 300 306 348" fill="none"
        stroke="url(#gold)" stroke-width="24" stroke-linecap="round"/>
  <path d="M220 206H292M220 256H292M220 306H292"
        stroke="#F4D77A" stroke-width="18" stroke-linecap="round"/>

  <!-- small eyes -->
  <circle cx="214" cy="220" r="14" fill="#0B3D2E"/>
  <circle cx="298" cy="220" r="14" fill="#0B3D2E"/>
</svg>
